<?xml version="1.0" encoding="utf-8"?>
<!-- Generator: Adobe Illustrator 26.2.1, SVG Export Plug-In . SVG Version: 6.00 Build 0)  -->
<svg version="1.1" id="Layer_1" xmlns="http://www.w3.org/2000/svg" xmlns:xlink="http://www.w3.org/1999/xlink" x="0px" y="0px"
	 viewBox="0 0 36 114" style="enable-background:new 0 0 36 114;" xml:space="preserve">
<style type="text/css">
	.st0{fill:#FFFFFF;}
</style>
<g>
	<g>
		<path class="st0" d="M18,113.5c-0.8,0-1.5-0.3-2.1-0.9l-15-15c-1.2-1.2-1.2-3.1,0-4.2c1.2-1.2,3.1-1.2,4.2,0l9.9,9.9
			c0-0.1,0-0.2,0-0.3V3c0-1.7,1.3-3,3-3c1.7,0,3,1.3,3,3v100c0,0.1,0,0.2,0,0.3l9.9-9.9c1.2-1.2,3.1-1.2,4.2,0
			c1.2,1.2,1.2,3.1,0,4.2l-15,15C19.5,113.2,18.8,113.5,18,113.5z M17.7,106l0.3,0.3l0.3-0.3C18.1,106,17.9,106,17.7,106z"/>
	</g>
</g>
</svg>
